<?xml version="1.0" standalone="no"?>
<svg xmlns:xlink="http://www.w3.org/1999/xlink" id="wave" style="transform:rotate(180deg); transition: 0.3s" viewBox="0 0 1440 110" version="1.1" xmlns="http://www.w3.org/2000/svg"><defs><linearGradient id="sw-gradient-0" x1="0" x2="0" y1="1" y2="0"><stop stop-color="rgba(250.816, 250.816, 250.816, 1)" offset="0%"/><stop stop-color="rgba(255, 254.35, 252.912, 1)" offset="100%"/></linearGradient></defs><path style="transform:translate(0, 0px); opacity:1" fill="url(#sw-gradient-0)" d="M0,22L12,34.8C24,48,48,73,72,77C96,81,120,62,144,60.5C168,59,192,73,216,77C240,81,264,73,288,71.5C312,70,336,73,360,67.8C384,62,408,48,432,36.7C456,26,480,18,504,14.7C528,11,552,11,576,11C600,11,624,11,648,18.3C672,26,696,40,720,42.2C744,44,768,33,792,33C816,33,840,44,864,55C888,66,912,77,936,67.8C960,59,984,29,1008,22C1032,15,1056,29,1080,45.8C1104,62,1128,81,1152,78.8C1176,77,1200,55,1224,44C1248,33,1272,33,1296,31.2C1320,29,1344,26,1368,23.8C1392,22,1416,22,1440,22C1464,22,1488,22,1512,22C1536,22,1560,22,1584,23.8C1608,26,1632,29,1656,38.5C1680,48,1704,62,1716,69.7L1728,77L1728,110L1716,110C1704,110,1680,110,1656,110C1632,110,1608,110,1584,110C1560,110,1536,110,1512,110C1488,110,1464,110,1440,110C1416,110,1392,110,1368,110C1344,110,1320,110,1296,110C1272,110,1248,110,1224,110C1200,110,1176,110,1152,110C1128,110,1104,110,1080,110C1056,110,1032,110,1008,110C984,110,960,110,936,110C912,110,888,110,864,110C840,110,816,110,792,110C768,110,744,110,720,110C696,110,672,110,648,110C624,110,600,110,576,110C552,110,528,110,504,110C480,110,456,110,432,110C408,110,384,110,360,110C336,110,312,110,288,110C264,110,240,110,216,110C192,110,168,110,144,110C120,110,96,110,72,110C48,110,24,110,12,110L0,110Z"/></svg>